<svg viewBox="0 0 96 96" xmlns="http://www.w3.org/2000/svg" xmlns:xlink="http://www.w3.org/1999/xlink" id="Icons_Compass" overflow="hidden"><path d="M48 10C27 10 10 27 10 48 10 69 27 86 48 86 69 86 86 69 86 48 86 27 69 10 48 10ZM48 16C65.6 16 80 30.4 80 48 80 65.6 65.6 80 48 80 30.4 80 16 65.6 16 48 16 30.4 30.4 16 48 16" fill="#FFFFFF"/><path d="M32.4 63.6 54.4 54.6 63.4 32.6 41.4 41.8 32.4 63.6ZM48 46C49.2 46 50 46.8 50 48 50 49.2 49.2 50 48 50 46.8 50 46 49.2 46 48 46 46.8 46.8 46 48 46" fill="#FFFFFF"/></svg>