<svg viewBox="0 0 96 96" xmlns="http://www.w3.org/2000/svg" xmlns:xlink="http://www.w3.org/1999/xlink" id="Icons_Telephone" overflow="hidden"><path d="M84.2 28.9C73.6 22.6 61.2 19 48 19 34.8 19 22.4 22.6 11.8 28.9 9.8 30.1 9.2 32.7 10.5 34.6L15.8 42.4C17.2 44.5 20.2 44.8 21.9 43L26.8 38.1C27.6 37.3 28 36.3 28 35.3L28 30.2C34.3 28.1 41 26.9 48 26.9 55 26.9 61.7 28.1 68 30.2L68 35.3C68 36.4 68.4 37.4 69.2 38.1L74.1 43C75.9 44.8 78.8 44.5 80.2 42.4L85.5 34.6C86.8 32.7 86.2 30.1 84.2 28.9Z" fill="#FFFFFF"/><path d="M58 52 54 52 54 48 58 48 58 52ZM58 60 54 60 54 56 58 56 58 60ZM58 68 54 68 54 64 58 64 58 68ZM50 52 46 52 46 48 50 48 50 52ZM50 60 46 60 46 56 50 56 50 60ZM50 68 46 68 46 64 50 64 50 68ZM42 52 38 52 38 48 42 48 42 52ZM42 60 38 60 38 56 42 56 42 60ZM42 68 38 68 38 64 42 64 42 68ZM64 41 64 35C64 33.3 62.7 32 61 32 59.3 32 58 33.3 58 35L58 40 38 40 38 35C38 33.3 36.7 32 35 32 33.3 32 32 33.3 32 35L32 41 20.3 52.7C18.8 54.2 18 56.2 18 58.4L18 76 78 76 78 58.3C78 56.2 77.2 54.1 75.7 52.6L64 41Z" fill="#FFFFFF"/></svg>