<svg viewBox="0 0 96 96" xmlns="http://www.w3.org/2000/svg" xmlns:xlink="http://www.w3.org/1999/xlink" id="Icons_Schoolhouse" overflow="hidden"><path d="M48 21.8 62.4 36.3 65.2 33.5 48 17 30.4 33.8 33.2 36.6Z" fill="#FFFFFF"/><path d="M80 57.9 72 57.9 72 49.9 80 49.9 80 57.9ZM80 69.9 72 69.9 72 61.9 80 61.9 80 69.9ZM68 57.9 60 57.9 60 49.9 68 49.9 68 57.9ZM68 69.9 60 69.9 60 61.9 68 61.9 68 69.9ZM55 57.9 41 57.9 41 53.9 55 53.9 55 57.9ZM48 38.9C49.7 38.9 51 40.2 51 41.9 51 43.6 49.7 44.9 48 44.9 46.3 44.9 45 43.6 45 41.9 45 40.2 46.3 38.9 48 38.9ZM36 57.9 28 57.9 28 49.9 36 49.9 36 57.9ZM36 69.9 28 69.9 28 61.9 36 61.9 36 69.9ZM24 57.9 16 57.9 16 49.9 24 49.9 24 57.9ZM24 69.9 16 69.9 16 61.9 24 61.9 24 69.9ZM60 44.9 60 38.9 48 26.9 36 38.9 36 44.9 12 44.9 12 78.9 41 78.9 41 67.9C41 65.1 43 61.9 48 61.9 53 61.9 55 65.1 55 67.9L55 78.9 84 78.9 84 44.9 60 44.9Z" fill="#FFFFFF"/></svg>